PathFileType	4	(X/Y/Z)	/Users/itak/Documents/Research/Walk-IL/dataset/trc/00127_00007.trc
DataRate	CameraRate	NumFrames	NumMarkers	Units	OrigDataRate	OrigDataStartFrame	OrigNumFrames
100.000000	100.000000	4	53	mm	100.000000	270	721
Frame#	Time	RPSI			LPSI			L3			STRN			T10			C7			CLAV			RBAK			LBAK			LSHO			LUPA			LAEL			LAOL			LWTS			LWPS			LFRA			LIFD			LHPS			LHTS			RSHO			RUPA			RAEL			RAOL			RWTS			RWPS			RFRA			RIFD			RHTS			RHPS			RBHD			LFHD			RFHD			LBHD			LHIP			RHIP			RASI			LASI			LKNE			LTHI			LANK			LTIP			LTOE			LMT1			LMT5			LHEE			RKNE			RTHI			RANK			RTIP			RTOE			RMT1			RMT5			RHEE			
		X1	Y1	Z1	X2	Y2	Z2	X3	Y3	Z3	X4	Y4	Z4	X5	Y5	Z5	X6	Y6	Z6	X7	Y7	Z7	X8	Y8	Z8	X9	Y9	Z9	X10	Y10	Z10	X11	Y11	Z11	X12	Y12	Z12	X13	Y13	Z13	X14	Y14	Z14	X15	Y15	Z15	X16	Y16	Z16	X17	Y17	Z17	X18	Y18	Z18	X19	Y19	Z19	X20	Y20	Z20	X21	Y21	Z21	X22	Y22	Z22	X23	Y23	Z23	X24	Y24	Z24	X25	Y25	Z25	X26	Y26	Z26	X27	Y27	Z27	X28	Y28	Z28	X29	Y29	Z29	X30	Y30	Z30	X31	Y31	Z31	X32	Y32	Z32	X33	Y33	Z33	X34	Y34	Z34	X35	Y35	Z35	X36	Y36	Z36	X37	Y37	Z37	X38	Y38	Z38	X39	Y39	Z39	X40	Y40	Z40	X41	Y41	Z41	X42	Y42	Z42	X43	Y43	Z43	X44	Y44	Z44	X45	Y45	Z45	X46	Y46	Z46	X47	Y47	Z47	X48	Y48	Z48	X49	Y49	Z49	X50	Y50	Z50	X51	Y51	Z51	X52	Y52	Z52	X53	Y53	Z53	

271	2.7	967.2451782226562	1099.972412109375	-6.667942047119141	839.9798583984375	1104.82666015625	41.7340202331543	903.2596435546875	1142.048461914062	23.06573677062988	811.9940185546875	1337.250854492188	-183.9777984619141	911.76611328125	1292.486083984375	45.04829406738281	865.8561401367188	1582.936157226562	26.25113487243652	811.0657348632812	1472.328247070312	-147.2140045166016	980.6697387695312	1407.327392578125	39.77664566040039	777.025146484375	1553.14990234375	72.83795166015625	683.4961547851562	1532.182739257812	20.25580215454102	639.1890869140625	1398.159790039062	68.68125152587891	626.6006469726562	1180.6279296875	70.47788238525391	708.921875	1169.715087890625	100.7813873291016	611.7490234375	939.3540649414062	-65.61317443847656	630.4822387695312	901.8735961914062	13.0602855682373	615.5113525390625	1066.44873046875	48.33512496948242	624.1636962890625	752.8345336914062	-117.4157867431641	614.6565551757812	831.210205078125	-21.72497367858887	592.3731079101562	851.8814086914062	-86.61933898925781	1011.923950195312	1577.817626953125	-96.96944427490234	1081.615478515625	1509.354614257812	-106.2835235595703	1126.251342773438	1217.987548828125	-107.9159317016602	1040.042846679688	1210.720092773438	-66.20754241943359	1079.248291015625	973.73828125	-243.9414520263672	1135.9755859375	960.5180053710938	-185.7776641845703	1137.487426757812	1146.105834960938	-137.6755981445312	1063.311157226562	779.0655517578125	-261.1078491210938	1080.115112304688	865.3566284179688	-275.0877685546875	1132.45947265625	861.1970825195312	-223.4222564697266	898.2230224609375	1764.219360351562	-34.34825134277344	690.8812866210938	1804.161743164062	-99.50894927978516	800.14892578125	1836.649047851562	-163.9195098876953	790.4783325195312	1734.834228515625	40.0302734375	704.1705322265625	1015.967590332031	-8.074004173278809	1026.553588867188	1007.958801269531	-172.9448699951172	949.6096801757812	1080.884399414062	-226.9682922363281	706.9862670898438	1077.91796875	-122.6164169311523	792.7724609375	517.9650268554688	-128.7741546630859	750.3809814453125	654.5463256835938	-70.34686279296875	915.67529296875	30.12624931335449	-127.292854309082	840.2482299804688	261.3176574707031	-79.47362518310547	877.7842407226562	41.62211608886719	-355.9449768066406	941.6515502929688	41.24577713012695	-299.8491516113281	847.4039306640625	39.73122024536133	-233.1770629882812	999.1007690429688	30.51092529296875	-88.10621643066406	971.7416381835938	531.2454833984375	-294.6936950683594	1003.442749023438	807.4288330078125	-242.0201721191406	1187.742065429688	169.60595703125	31.42152404785156	1035.154663085938	427.4364318847656	-227.8503723144531	1097.688232421875	52.08390045166016	-140.1048889160156	1069.985107421875	61.10277557373047	-75.03067779541016	1186.89501953125	94.83572387695312	-77.00421905517578	1150.126098632812	198.1272583007812	89.60374450683594	
272	2.71	965.0875244140625	1100.71923828125	-15.90567207336426	838.6920776367188	1105.11376953125	34.98463821411133	901.4553833007812	1142.363159179688	15.20595455169678	806.7516479492188	1337.893188476562	-190.0553588867188	910.0393676757812	1292.926147460938	37.64093399047852	864.0429077148438	1583.376953125	19.16571998596191	806.6588134765625	1472.953735351562	-153.3267059326172	978.7579345703125	1407.699584960938	31.08428573608398	775.8674926757812	1553.777954101562	67.0828857421875	681.7477416992188	1533.030883789062	15.95930099487305	637.3992309570312	1398.956787109375	64.29096221923828	623.2818603515625	1181.291625976562	64.42931365966797	705.917236328125	1169.71435546875	93.69855499267578	605.3271484375	941.5131225585938	-74.05016326904297	624.9527587890625	903.1342163085938	4.053566455841064	611.2763671875	1067.420166015625	41.1545295715332	615.7611083984375	755.4266967773438	-127.6890716552734	608.17578125	832.9459838867188	-31.16577911376953	585.28173828125	854.3646240234375	-95.57658386230469	1008.379699707031	1578.017700195312	-106.0957336425781	1077.920776367188	1509.564208984375	-116.3615264892578	1122.36474609375	1218.195678710938	-117.9688491821289	1036.728637695312	1211.039794921875	-74.99489593505859	1073.517700195312	973.5335693359375	-252.5719757080078	1130.896850585938	960.412353515625	-195.0926513671875	1133.186889648438	1146.22509765625	-147.6029052734375	1057.175537109375	779.0336303710938	-269.14501953125	1073.819091796875	865.0960083007812	-283.4433898925781	1126.802734375	861.0179443359375	-232.397705078125	895.2906494140625	1765.072998046875	-42.18095016479492	687.3657836914062	1804.394653320312	-105.7462310791016	795.9599609375	1836.775268554688	-171.1754455566406	788.2169189453125	1735.754272460938	33.23151397705078	702.317626953125	1016.056213378906	-12.22589874267578	1021.267944335938	1009.297607421875	-183.6060943603516	943.0679321289062	1081.953735351562	-235.8381805419922	702.5362548828125	1078.197143554688	-126.8340530395508	791.7838745117188	517.5206298828125	-130.7874908447266	749.1178588867188	654.4904174804688	-72.98770904541016	915.700927734375	30.28567886352539	-127.4348678588867	840.2208862304688	261.5645751953125	-80.20732879638672	877.8340454101562	40.68447494506836	-356.2908630371094	941.8429565429688	40.68157196044922	-300.0509033203125	847.458251953125	39.56998443603516	-233.4803161621094	999.1651000976562	30.68110656738281	-88.22337341308594	960.1248779296875	534.6961059570312	-310.248046875	996.002197265625	809.8756713867188	-254.6777038574219	1184.48681640625	164.9844665527344	-0.3017281889915466	1025.09228515625	429.2412719726562	-247.6917724609375	1091.320678710938	52.46559524536133	-174.0373840332031	1065.58349609375	59.22124862670898	-107.9485397338867	1181.673461914062	95.02140808105469	-111.8665542602539	1148.300903320312	190.8877258300781	59.951171875	
273	2.72	962.8519287109375	1101.550170898438	-25.33864212036133	837.4735717773438	1105.3837890625	28.20646286010742	899.6421508789062	1142.652954101562	7.262775421142578	801.3922729492188	1338.499877929688	-196.0028991699219	908.2958374023438	1293.373657226562	30.40888595581055	862.1581420898438	1583.816650390625	12.12013339996338	802.1631469726562	1473.55029296875	-159.3582153320312	976.7488403320312	1408.046508789062	22.43302917480469	774.663818359375	1554.3955078125	61.35931777954102	679.8959350585938	1533.852661132812	11.66457653045654	635.5415649414062	1399.722412109375	59.93725204467773	619.872802734375	1181.942504882812	58.48758697509766	702.7701416015625	1169.64404296875	86.65561676025391	598.9118041992188	943.5823974609375	-82.25566864013672	619.4207763671875	904.3570556640625	-4.699019908905029	606.9940185546875	1068.358642578125	34.11786270141602	607.4644165039062	757.9520263671875	-137.6136169433594	601.7603149414062	834.622802734375	-40.3013916015625	578.2385864257812	856.7784423828125	-104.2501449584961	1004.705932617188	1578.187255859375	-115.1942596435547	1074.088134765625	1509.741088867188	-126.4130096435547	1118.443603515625	1218.39599609375	-128.0911712646484	1033.424194335938	1211.29833984375	-83.78256988525391	1067.689331054688	973.3483276367188	-261.2720642089844	1125.83251953125	960.3446655273438	-204.5962219238281	1128.850463867188	1146.351806640625	-157.6266784667969	1050.938842773438	779.0712890625	-277.2272338867188	1067.359741210938	864.8327026367188	-291.8458251953125	1121.103149414062	860.8562622070312	-241.5395050048828	892.3161010742188	1765.905029296875	-50.0430793762207	683.7855224609375	1804.615478515625	-111.8469619750977	791.63232421875	1836.876831054688	-178.3512268066406	785.9609375	1736.651977539062	26.48810005187988	700.5713500976562	1016.076721191406	-16.23427200317383	1015.775207519531	1010.7099609375	-194.4125213623047	936.296142578125	1083.0380859375	-244.6947937011719	698.0380249023438	1078.410766601562	-130.8719329833984	790.7727661132812	517.09423828125	-132.8158416748047	747.94287109375	654.4331665039062	-75.60322570800781	915.736572265625	30.43192672729492	-127.5810089111328	840.2686157226562	261.8382568359375	-80.97634887695312	877.8919677734375	39.77861022949219	-356.697265625	942.01806640625	40.14260864257812	-300.2546997070312	847.5281982421875	39.42350769042969	-233.7731018066406	999.2528076171875	30.84193992614746	-88.33502960205078	948.4006958007812	538.117919921875	-325.061279296875	988.3408813476562	812.3424072265625	-267.1361389160156	1180.0146484375	159.8814697265625	-32.20614624023438	1014.664306640625	430.8513793945312	-266.8888549804688	1083.088134765625	52.71988296508789	-207.8423004150391	1059.365356445312	57.30045700073242	-140.8762512207031	1174.729248046875	94.67201995849609	-146.6340789794922	1145.436767578125	183.2510070800781	29.96788024902344	
274	2.73	960.5092163085938	1102.461791992188	-34.98304748535156	836.3307495117188	1105.6416015625	21.38746070861816	897.8377075195312	1142.913940429688	-0.7689539790153503	795.92333984375	1339.06591796875	-201.814453125	906.5686645507812	1293.8291015625	23.35774421691895	860.2037353515625	1584.248413085938	5.116015911102295	797.5806884765625	1474.116088867188	-165.3097534179688	974.6577758789062	1408.36376953125	13.8181324005127	773.4067993164062	1554.996826171875	55.66640090942383	677.9588012695312	1534.653930664062	7.393039226531982	633.6163330078125	1400.455688476562	55.61759185791016	616.3768310546875	1182.59033203125	52.6290168762207	699.46630859375	1169.496337890625	79.63663482666016	592.55078125	945.5595092773438	-90.25776672363281	613.874755859375	905.5437622070312	-13.20583820343018	602.6659545898438	1069.273803710938	27.19573211669922	599.3181762695312	760.3875732421875	-147.1939544677734	595.4028930664062	836.23974609375	-49.14842224121094	571.2611694335938	859.1140747070312	-112.668701171875	1000.900390625	1578.3349609375	-124.2584609985352	1070.114868164062	1509.891357421875	-136.4309844970703	1114.465698242188	1218.591918945312	-138.2633819580078	1030.105224609375	1211.513793945312	-92.56951904296875	1061.760009765625	973.1915893554688	-270.0374450683594	1120.766357421875	960.3245849609375	-214.2636108398438	1124.457397460938	1146.487915039062	-167.7319183349609	1044.658569335938	779.1654663085938	-285.3560791015625	1060.78466796875	864.5791015625	-300.3019714355469	1115.38134765625	860.72412109375	-250.835205078125	889.2900390625	1766.693115234375	-57.94110488891602	680.1343994140625	1804.83056640625	-117.8164138793945	787.1622924804688	1836.946533203125	-185.4525909423828	783.7133178710938	1737.526733398438	19.79505348205566	698.936767578125	1016.055908203125	-20.08253479003906	1010.065124511719	1012.1708984375	-205.3532562255859	929.2783813476562	1084.123291015625	-253.5295257568359	693.4749145507812	1078.5712890625	-134.7296142578125	789.6885986328125	516.7020874023438	-134.8827209472656	746.8421630859375	654.38671875	-78.21270751953125	915.7762451171875	30.56269454956055	-127.725471496582	840.3776245117188	262.1350402832031	-81.78418731689453	877.9537963867188	38.93898010253906	-357.1506958007812	942.1796264648438	39.64284515380859	-300.4609985351562	847.6140747070312	39.29111862182617	-234.0453948974609	999.3534545898438	30.99802780151367	-88.4395751953125	936.6027221679688	541.464599609375	-339.1247863769531	980.4248657226562	814.7835693359375	-279.4312744140625	1174.26611328125	154.3615112304688	-64.18205261230469	1003.900817871094	432.2839050292969	-285.4409790039062	1072.93603515625	52.91330337524414	-241.3067474365234	1051.241088867188	55.33654022216797	-173.5741271972656	1166.033935546875	93.82759857177734	-181.1513977050781	1141.462646484375	175.3011169433594	-0.2443791180849075	
